<svg width="800" height="800" viewBox="0 0 800 800" fill="none" xmlns="http://www.w3.org/2000/svg">
<circle cx="400" cy="400" r="400" fill="#7EC9CE"/>
<path d="M201.378 408.647L90.6204 508.006L88.1481 311.806L201.378 408.647Z" fill="#050000"/>
<path d="M571.332 410.136L710.913 568.87L706.874 248.311L571.332 410.136Z" fill="#C60202"/>
<path d="M532.828 411.828C534.391 410.266 534.391 407.734 532.828 406.172L507.373 380.716C505.81 379.154 503.278 379.154 501.716 380.716C500.154 382.278 500.154 384.81 501.716 386.373L524.343 409L501.716 431.627C500.154 433.19 500.154 435.722 501.716 437.284C503.278 438.846 505.81 438.846 507.373 437.284L532.828 411.828ZM242 413L530 413V405L242 405V413Z" fill="#FFE2E2"/>
</svg>
